<svg width="572" height="494" viewBox="0 0 572 494" fill="none" xmlns="http://www.w3.org/2000/svg">
<path d="M543.783 131.328C511.066 68.8324 448.964 25.5357 381.996 9.12894C318.112 -6.52229 241.203 -5.75192 193.115 45.7869C161.452 79.7221 148.772 126.968 120.827 163.612C106.938 181.826 89.5546 190.158 71.3557 202.907C27.0015 233.98 -5.6198 283.981 1.52913 340.534C13.4814 435.087 99.732 485.868 186.416 491.571C300.969 499.108 382.666 483.789 452.063 439.441C488.106 416.408 524.053 389.076 546.056 351.246C579.33 294.036 577.963 221.891 556.439 160.462C552.896 150.358 548.656 140.637 543.783 131.328Z" fill="#840037"/>
<path opacity="0.8" d="M543.783 131.328C511.066 68.8324 448.964 25.5357 381.996 9.12894C318.112 -6.52229 241.203 -5.75192 193.115 45.7869C161.452 79.7221 148.772 126.968 120.827 163.612C106.938 181.826 89.5546 190.158 71.3557 202.907C27.0015 233.98 -5.6198 283.981 1.52913 340.534C13.4814 435.087 99.732 485.868 186.416 491.571C300.969 499.108 382.666 483.789 452.063 439.441C488.106 416.408 524.053 389.076 546.056 351.246C579.33 294.036 577.963 221.891 556.439 160.462C552.896 150.358 548.656 140.637 543.783 131.328Z" fill="white"/>
</svg>
