<svg width="231" height="490" viewBox="0 0 231 490" fill="none" xmlns="http://www.w3.org/2000/svg">
<path opacity="0.2" d="M138.039 489.799C173.778 489.799 202.75 481.521 202.75 471.31C202.75 461.099 173.778 452.821 138.039 452.821C102.301 452.821 73.3293 461.099 73.3293 471.31C73.3293 481.521 102.301 489.799 138.039 489.799Z" fill="black"/>
<path d="M6.15438 112.323C6.15438 112.323 1.53223 115.712 1.53223 118.794C1.53223 121.875 3.99737 131.428 6.15438 132.66C8.31138 133.893 13.5498 134.817 15.3987 134.509C17.2475 134.201 20.9453 131.428 20.0208 130.503C19.0964 129.579 19.0964 129.579 19.0964 129.579L16.015 128.963C16.015 128.963 18.172 128.963 19.7127 127.73C21.2534 126.497 21.8697 123.108 21.8697 123.108C21.8697 123.108 19.7127 118.177 17.2475 117.561C14.7824 116.945 6.15438 112.323 6.15438 112.323Z" fill="white" stroke="#263238" stroke-width="1.23257" stroke-miterlimit="10" stroke-linecap="round" stroke-linejoin="round"/>
<path d="M46.2131 120.643C46.2131 120.643 29.5733 107.701 26.1837 107.393C22.7942 107.085 17.5557 107.085 14.1661 108.009C10.7766 108.934 6.15441 110.474 6.15441 112.323C6.15441 114.172 5.22998 124.033 5.22998 126.806C5.22998 129.579 9.23585 133.585 10.7766 133.585C12.3173 133.585 12.9336 132.969 12.9336 131.12C12.9336 129.271 10.1603 126.498 10.1603 126.498L12.6254 121.567L17.5557 121.876C17.5557 121.876 21.8697 129.579 27.4163 130.195C32.9629 130.812 36.6606 130.195 36.6606 130.195L44.3642 134.201L51.4515 127.114L46.2131 120.643Z" fill="white" stroke="#263238" stroke-width="1.23257" stroke-miterlimit="10" stroke-linecap="round" stroke-linejoin="round"/>
<path d="M18.6621 116.404L13.3645 114.418" stroke="#263238" stroke-width="1.23257" stroke-miterlimit="10" stroke-linecap="round" stroke-linejoin="round"/>
<path d="M6.77075 126.19L7.0789 144.37L16.3232 144.679V125.882L6.77075 126.19Z" fill="#840037" stroke="#263238" stroke-width="1.23257" stroke-miterlimit="10" stroke-linecap="round" stroke-linejoin="round"/>
<path d="M24.0267 112.939C24.0267 112.939 16.9394 116.637 12.0091 120.026C7.07883 123.416 2.14854 123.416 3.68926 125.573C5.22997 127.73 5.84626 128.346 9.85212 127.73C13.858 127.114 19.4046 125.573 19.4046 125.573C19.4046 125.573 26.4919 126.805 31.114 126.805C35.7362 126.805 39.742 123.416 39.742 123.416" fill="white"/>
<path d="M24.0267 112.939C24.0267 112.939 16.9394 116.637 12.0091 120.026C7.07883 123.416 2.14854 123.416 3.68926 125.573C5.22997 127.73 5.84626 128.346 9.85212 127.73C13.858 127.114 19.4046 125.573 19.4046 125.573C19.4046 125.573 26.4919 126.805 31.114 126.805C35.7362 126.805 39.742 123.416 39.742 123.416" stroke="#263238" stroke-width="1.23257" stroke-miterlimit="10" stroke-linecap="round" stroke-linejoin="round"/>
<path d="M58.8465 130.811L52.9918 124.032C52.9918 124.032 48.3697 122.491 43.1312 127.729C37.8928 132.968 38.2009 136.666 38.2009 136.666L42.8231 142.828C42.8231 142.828 52.6837 130.811 58.8465 130.811Z" fill="#263238" stroke="#263238" stroke-width="1.23257" stroke-miterlimit="10" stroke-linecap="round" stroke-linejoin="round"/>
<path d="M116.845 451.859C116.845 451.859 105.19 459.54 97.2436 464.838C89.2972 470.135 95.3899 473.049 100.952 474.109C106.515 475.169 120.289 472.785 125.587 471.99C130.884 471.195 147.042 466.693 149.162 464.044C151.281 461.395 151.281 458.746 149.692 457.951C148.103 457.156 125.853 450.8 123.468 450.8C121.084 450.8 116.845 451.859 116.845 451.859Z" fill="white" stroke="#263238" stroke-width="1.23257" stroke-miterlimit="10" stroke-linecap="round" stroke-linejoin="round"/>
<path d="M94.7454 467.443C94.7454 467.443 98.8215 470.8 110.809 471.519C122.797 472.239 138.381 464.087 138.381 464.087" stroke="#263238" stroke-width="1.23257" stroke-miterlimit="10" stroke-linecap="round" stroke-linejoin="round"/>
<path d="M94.7454 467.443C94.7454 467.443 98.8215 470.8 110.809 471.519C122.797 472.239 138.381 464.087 138.381 464.087" stroke="#263238" stroke-width="1.23257" stroke-miterlimit="10" stroke-linecap="round" stroke-linejoin="round"/>
<path d="M145.188 458.481C145.188 458.481 139.361 463.514 132.474 467.753C125.588 471.99 116.847 475.434 118.435 479.938C120.025 484.44 133.534 484.44 142.276 483.647C151.017 482.852 154.99 480.468 161.612 478.349C168.235 476.23 173.533 472.256 174.856 469.078C176.18 465.898 148.897 457.686 145.188 458.481Z" fill="white" stroke="#263238" stroke-width="1.23257" stroke-miterlimit="10" stroke-linecap="round" stroke-linejoin="round"/>
<path d="M118.96 477.514C118.96 477.514 121.598 480.632 138.86 479.912C156.122 479.192 167.87 471.041 167.87 471.041" stroke="#263238" stroke-width="1.23257" stroke-miterlimit="10" stroke-linecap="round" stroke-linejoin="round"/>
<path d="M93.0172 337.331C93.0172 337.331 92.6782 357.646 94.3718 364.755C96.0641 371.866 101.144 373.897 102.498 373.897C103.853 373.897 96.4043 335.299 96.4043 335.299C96.4043 335.299 92.3405 335.637 93.0172 337.331Z" fill="#840037" stroke="#263238" stroke-width="1.23257" stroke-miterlimit="10" stroke-linecap="round" stroke-linejoin="round"/>
<path d="M95.0499 333.606C95.0499 333.606 90.9873 331.575 90.9873 334.283C90.9873 336.991 92.6809 343.086 94.0342 343.086C95.3888 343.086 95.3888 343.086 95.3888 343.086L95.0499 333.606Z" fill="#840037" stroke="#263238" stroke-width="1.23257" stroke-miterlimit="10" stroke-linecap="round" stroke-linejoin="round"/>
<path d="M90.3093 247.944C90.3093 247.944 85.9077 291.622 90.3093 315.322C94.7108 339.023 103.514 386.424 105.545 392.18C107.576 397.936 118.411 440.259 118.411 440.259C118.411 440.259 115.702 443.984 115.702 445.337C115.702 446.692 115.363 451.77 115.363 451.77C115.363 451.77 122.473 455.495 129.583 457.526C136.692 459.558 141.772 460.573 141.772 460.573C141.772 460.573 149.898 463.282 154.976 465.314C160.054 467.345 172.243 472.085 172.243 472.085C172.243 472.085 177.322 468.7 180.37 464.637C183.417 460.574 182.063 449.739 181.046 447.031C180.031 444.322 178.337 440.259 178.337 435.858C178.337 431.456 177.998 386.086 177.998 384.732C177.998 383.377 181.384 296.362 181.384 290.606C181.384 284.85 181.384 254.716 181.384 253.701C181.384 252.685 161.747 253.024 141.432 253.024C121.116 253.024 89.6289 242.866 89.6289 242.866L90.3093 247.944Z" fill="#840037" stroke="#263238" stroke-width="1.23257" stroke-miterlimit="10" stroke-linecap="round" stroke-linejoin="round"/>
<path d="M111.302 267.92L122.136 280.109C122.136 280.109 129.247 370.511 131.278 379.651C133.309 388.793 146.514 447.707 146.514 447.707C146.514 447.707 142.451 449.738 143.467 453.124C144.482 456.51 141.773 460.572 141.773 460.572" stroke="#263238" stroke-width="1.23257" stroke-miterlimit="10" stroke-linecap="round" stroke-linejoin="round"/>
<path d="M150.239 344.44C150.239 344.44 149.223 361.03 150.239 368.817C151.254 376.605 154.301 378.975 158.026 378.975C161.751 378.975 176.31 376.267 178.679 375.589C181.049 374.913 181.726 370.51 181.049 364.077C180.373 357.644 178.002 340.038 178.002 340.038C178.002 340.038 163.104 344.102 150.239 344.44Z" fill="#840037" stroke="#263238" stroke-width="1.23257" stroke-miterlimit="10" stroke-linecap="round" stroke-linejoin="round"/>
<path d="M179.356 334.283C179.356 334.283 171.569 336.991 166.152 336.991C160.734 336.991 148.885 337.668 148.885 337.668V345.794C148.885 345.794 153.625 346.81 159.381 346.471C165.137 346.132 179.357 342.746 179.357 342.746C179.357 342.746 179.017 337.669 179.356 334.283Z" fill="#840037" stroke="#263238" stroke-width="1.23257" stroke-miterlimit="10" stroke-linecap="round" stroke-linejoin="round"/>
<path d="M150.238 265.55C150.238 265.55 150.577 276.047 155.316 281.802C160.057 287.558 166.151 287.219 166.151 287.219" stroke="#263238" stroke-width="1.23257" stroke-miterlimit="10" stroke-linecap="round" stroke-linejoin="round"/>
<path d="M169.098 330.724L169.199 336.315" stroke="#263238" stroke-width="1.23257" stroke-miterlimit="10" stroke-linecap="round" stroke-linejoin="round"/>
<path d="M167.987 269.373L168.993 324.965" stroke="#263238" stroke-width="1.23257" stroke-miterlimit="10" stroke-linecap="round" stroke-linejoin="round"/>
<path d="M167.844 261.487L167.907 264.979" stroke="#263238" stroke-width="1.23257" stroke-miterlimit="10" stroke-linecap="round" stroke-linejoin="round"/>
<path d="M169.892 441.872C170.642 447.633 172.347 450.881 174.278 451.432C176.648 452.109 176.987 457.188 174.278 458.543C171.568 459.897 171.568 459.897 171.568 459.897C171.568 459.897 170.214 458.205 172.584 462.944C174.954 467.685 169.537 470.732 169.537 470.732" stroke="#263238" stroke-width="1.23257" stroke-miterlimit="10" stroke-linecap="round" stroke-linejoin="round"/>
<path d="M169.538 379.653C169.538 379.653 169.199 429.085 169.538 437.551" stroke="#263238" stroke-width="1.23257" stroke-miterlimit="10" stroke-linecap="round" stroke-linejoin="round"/>
<path d="M84.5532 235.416C84.5532 235.416 84.8922 245.235 85.5689 246.929C86.2456 248.621 94.033 259.118 114.009 261.827C133.986 264.536 158.024 261.827 180.71 257.086C180.71 257.086 187.143 253.362 188.158 251.33C189.174 249.299 187.143 240.834 187.143 240.834C187.143 240.834 160.734 247.605 141.096 247.605C121.459 247.605 93.3563 236.771 89.2937 235.416C85.2299 234.062 84.5532 235.416 84.5532 235.416Z" fill="#263238" stroke="#263238" stroke-width="1.23257" stroke-miterlimit="10" stroke-linecap="round" stroke-linejoin="round"/>
<path d="M118.934 95.6821C118.934 95.6821 109.382 100.304 103.219 105.235C97.0563 110.165 93.0504 122.799 89.969 129.886C86.8875 136.973 83.8061 150.224 83.8061 150.224C83.8061 150.224 70.8641 136.973 66.2419 131.735C61.6198 126.496 53.6081 128.037 46.5208 135.124C39.4335 142.212 40.9742 147.45 44.3638 153.921C47.7533 160.392 69.6315 182.887 77.027 189.05C84.4224 195.212 86.8875 193.672 86.8875 193.672C86.8875 193.672 81.341 229.725 82.5735 234.655C83.8061 239.585 98.2889 250.986 118.318 253.76C138.348 256.533 168.854 254.068 176.249 250.37C183.645 246.672 188.883 245.748 190.424 241.434C191.964 237.12 192.889 229.108 192.889 229.108C192.889 229.108 196.278 133.892 194.738 121.566C193.197 109.24 192.273 105.235 188.575 102.461C184.877 99.688 171.935 96.6066 159.918 96.2984C147.9 95.9903 118.934 95.6821 118.934 95.6821Z" fill="#ABABAB" stroke="#263238" stroke-width="1.23257" stroke-miterlimit="10" stroke-linecap="round" stroke-linejoin="round"/>
<path d="M156.528 207.539C156.528 207.539 160.842 226.028 163.924 232.191C167.005 238.353 168.238 242.051 168.238 242.051L160.226 244.824C160.226 244.824 154.987 234.964 152.522 225.103C150.057 215.243 149.441 210.312 149.441 210.312L156.528 207.539Z" fill="#263238" stroke="#263238" stroke-width="1.23257" stroke-miterlimit="10" stroke-linecap="round" stroke-linejoin="round"/>
<path d="M93.6668 197.371L96.4401 204.15L85.9632 222.022L85.655 212.161L93.6668 197.371Z" fill="#263238" stroke="#263238" stroke-width="1.23257" stroke-miterlimit="10" stroke-linecap="round" stroke-linejoin="round"/>
<path d="M128.179 112.322C128.179 112.322 124.481 136.357 118.01 178.264C111.539 220.172 114.004 251.911 114.004 251.911" stroke="#263238" stroke-width="1.23257" stroke-miterlimit="10" stroke-linecap="round" stroke-linejoin="round"/>
<path d="M150.36 165.952C158.419 166.586 167.028 166.337 173.476 163.782" stroke="#263238" stroke-width="1.23257" stroke-miterlimit="10" stroke-linecap="round" stroke-linejoin="round"/>
<path d="M126.946 161.934C126.946 161.934 135.245 164.22 145.495 165.464" stroke="#263238" stroke-width="1.23257" stroke-miterlimit="10" stroke-linecap="round" stroke-linejoin="round"/>
<path d="M99.7876 118.913C100.401 117.053 101.031 115.357 101.678 113.863" stroke="#263238" stroke-width="1.23257" stroke-miterlimit="10" stroke-linecap="round" stroke-linejoin="round"/>
<path d="M86.8877 193.671C86.8877 193.671 91.3866 148.203 98.5183 123.076" stroke="#263238" stroke-width="1.23257" stroke-miterlimit="10" stroke-linecap="round" stroke-linejoin="round"/>
<path d="M104.579 157.996C106.8 158.742 109.26 159.306 111.847 159.468" stroke="#263238" stroke-width="1.23257" stroke-miterlimit="10" stroke-linecap="round" stroke-linejoin="round"/>
<path d="M93.9749 152.381C93.9749 152.381 96.8665 154.717 101.314 156.715" stroke="#263238" stroke-width="1.23257" stroke-miterlimit="10" stroke-linecap="round" stroke-linejoin="round"/>
<path d="M89.0449 191.823C89.0449 191.823 98.5974 198.294 109.999 198.602" stroke="#263238" stroke-width="1.23257" stroke-miterlimit="10" stroke-linecap="round" stroke-linejoin="round"/>
<path d="M128.515 201.896C137.195 203.792 153.191 206.211 170.703 203.532" stroke="#263238" stroke-width="1.23257" stroke-miterlimit="10" stroke-linecap="round" stroke-linejoin="round"/>
<path d="M121.708 200.143C121.708 200.143 122.955 200.547 125.201 201.115" stroke="#263238" stroke-width="1.23257" stroke-miterlimit="10" stroke-linecap="round" stroke-linejoin="round"/>
<path d="M83.806 150.224C83.806 150.224 83.1897 164.09 86.5793 171.794" stroke="#263238" stroke-width="1.23257" stroke-miterlimit="10" stroke-linecap="round" stroke-linejoin="round"/>
<path d="M132.948 224.908C132.091 226.368 131.293 228.009 130.588 229.849Z" fill="white"/>
<path d="M132.948 224.908C132.091 226.368 131.293 228.009 130.588 229.849" stroke="#263238" stroke-width="1.23257" stroke-miterlimit="10" stroke-linecap="round" stroke-linejoin="round"/>
<path d="M147.82 213.244C147.82 213.244 140.137 214.49 134.238 222.898" stroke="#263238" stroke-width="1.23257" stroke-miterlimit="10" stroke-linecap="round" stroke-linejoin="round"/>
<path d="M126.946 111.706C126.946 111.706 132.493 116.02 148.516 114.171C164.54 112.322 177.482 105.851 183.028 105.235C188.575 104.618 190.424 104.31 190.424 104.31C190.424 104.31 183.953 91.6764 175.941 86.438C167.929 81.1996 159.301 78.4263 154.063 78.4263C148.824 78.4263 134.342 83.0484 125.406 89.8276C116.469 96.6067 112.772 94.7579 117.086 100.921C121.4 107.084 126.946 111.706 126.946 111.706Z" fill="#263238" stroke="#263238" stroke-width="1.23257" stroke-miterlimit="10" stroke-linecap="round" stroke-linejoin="round"/>
<path d="M125.406 86.4385C125.406 86.4385 126.022 109.241 126.946 111.706C127.871 114.171 153.755 95.9909 156.22 91.3688C158.685 86.7466 163.307 62.7114 163.307 62.7114C163.307 62.7114 152.522 64.8684 148.824 67.3336C145.127 69.7987 139.888 76.886 134.342 79.6593C128.795 82.4326 125.406 86.4385 125.406 86.4385Z" fill="white" stroke="#263238" stroke-width="1.23257" stroke-miterlimit="10" stroke-linecap="round" stroke-linejoin="round"/>
<path d="M147.284 77.1943L135.314 79.1258C134.991 79.3168 134.667 79.4968 134.342 79.6595C128.795 82.4328 125.406 86.4386 125.406 86.4386C125.406 86.4386 125.488 89.472 125.636 93.4409C143.579 86.6999 147.284 77.1943 147.284 77.1943Z" fill="#263238" stroke="#263238" stroke-width="1.23257" stroke-miterlimit="10" stroke-linecap="round" stroke-linejoin="round"/>
<path d="M112.464 38.9845C112.464 38.9845 110.923 55.3161 110.923 60.5545C110.923 65.793 109.69 84.5897 114.929 87.6711C120.167 90.7526 134.034 87.6711 137.731 85.5141C141.429 83.3571 146.051 79.3513 147.284 77.1943C148.516 75.0373 149.441 72.8803 149.441 72.8803C149.441 72.8803 152.522 70.107 154.371 68.8744C156.22 67.6418 160.534 68.5662 162.075 63.3278C163.615 58.0894 165.156 56.2405 163.615 50.6939C162.075 45.1473 156.836 35.903 154.063 33.4379C151.29 30.9727 135.574 24.1936 128.795 26.9669C122.016 29.7402 113.388 34.3623 112.464 38.9845Z" fill="white" stroke="#263238" stroke-width="1.23257" stroke-miterlimit="10" stroke-linecap="round" stroke-linejoin="round"/>
<path d="M119.859 48.229C119.859 48.229 119.551 52.8512 117.702 55.9326C115.853 59.014 111.847 60.5547 114.929 62.4036C118.01 64.2525 122.632 64.8688 122.632 64.8688" stroke="#263238" stroke-width="1.23257" stroke-miterlimit="10" stroke-linecap="round" stroke-linejoin="round"/>
<path d="M118.318 69.4905C118.318 69.4905 128.795 72.572 133.726 63.0195" stroke="#263238" stroke-width="1.23257" stroke-miterlimit="10" stroke-linecap="round" stroke-linejoin="round"/>
<path d="M128.025 54.0832C128.961 54.0832 129.72 52.9105 129.72 51.4639C129.72 50.0174 128.961 48.8447 128.025 48.8447C127.089 48.8447 126.33 50.0174 126.33 51.4639C126.33 52.9105 127.089 54.0832 128.025 54.0832Z" fill="#263238"/>
<path d="M115.699 51.9259C116.635 51.9259 117.394 50.7533 117.394 49.3067C117.394 47.8602 116.635 46.6875 115.699 46.6875C114.763 46.6875 114.004 47.8602 114.004 49.3067C114.004 50.7533 114.763 51.9259 115.699 51.9259Z" fill="#263238"/>
<path d="M125.714 44.5308C125.714 44.5308 130.336 43.2982 134.034 46.0715" stroke="#263238" stroke-width="1.23257" stroke-miterlimit="10" stroke-linecap="round" stroke-linejoin="round"/>
<path d="M113.696 42.9899C113.696 42.9899 117.702 40.2166 120.167 42.9899" stroke="#263238" stroke-width="1.23257" stroke-miterlimit="10" stroke-linecap="round" stroke-linejoin="round"/>
<path d="M118.626 7.24516C118.626 7.24516 110.615 8.78587 106.609 15.2569C102.603 21.7279 100.138 29.4315 100.138 29.4315L111.847 26.0419C111.847 26.0419 108.766 33.7455 104.76 35.5944C100.754 37.4432 97.9807 38.3676 97.9807 38.3676C97.9807 38.3676 105.684 41.7572 113.388 40.8328C121.091 39.9084 132.185 32.5129 132.185 32.5129L127.562 40.2165C127.562 40.2165 125.097 41.4491 135.574 40.2165C146.051 38.9839 150.057 37.1351 150.057 37.1351C150.057 37.1351 144.202 47.3038 143.586 48.2282C142.97 49.1527 140.196 51.6178 140.196 51.6178L146.359 51.926C146.359 51.926 143.586 52.8504 143.586 54.6993C143.586 56.5481 142.97 60.8621 142.97 60.8621L149.133 58.0888L148.824 60.2458C148.824 60.2458 150.981 59.6295 153.138 59.3214C155.295 59.0133 158.377 57.7807 158.377 57.7807C158.377 57.7807 158.993 63.3273 158.069 65.4843C157.144 67.6413 151.906 69.4901 151.906 69.4901L151.29 75.653C151.29 75.653 156.836 75.653 157.761 75.3449C158.685 75.0367 160.226 72.8797 160.226 72.8797L158.685 77.5019C158.685 77.5019 160.226 77.81 165.156 75.9612C170.086 74.1123 173.784 64.2517 173.784 64.2517C173.784 64.2517 181.179 49.769 181.796 39.9084C182.412 30.0478 176.249 16.1813 169.162 10.3266C162.075 4.47187 134.958 -4.46429 118.626 7.24516Z" fill="#263238" stroke="#263238" stroke-width="1.23257" stroke-miterlimit="10" stroke-linecap="round" stroke-linejoin="round"/>
<path d="M176.866 123.108C176.866 123.108 167.313 139.44 169.162 145.603C171.011 151.766 186.726 194.597 186.726 194.597C186.726 194.597 180.255 200.144 174.093 203.534C167.93 206.923 158.215 210.584 158.215 213.974C158.215 217.363 160.867 230.361 165.181 231.593C169.495 232.826 179.023 233.115 192.889 229.11C206.756 225.104 226.477 208.464 229.25 199.528C232.024 190.592 226.785 175.493 224.012 170.254C221.239 165.016 207.064 129.271 202.134 119.719C197.203 110.166 189.192 107.085 186.418 107.701" fill="#ABABAB"/>
<path d="M176.866 123.108C176.866 123.108 167.313 139.44 169.162 145.603C171.011 151.766 186.726 194.597 186.726 194.597C186.726 194.597 180.255 200.144 174.093 203.534C167.93 206.923 158.215 210.584 158.215 213.974C158.215 217.363 160.867 230.361 165.181 231.593C169.495 232.826 179.023 233.115 192.889 229.11C206.756 225.104 226.477 208.464 229.25 199.528C232.024 190.592 226.785 175.493 224.012 170.254C221.239 165.016 207.064 129.271 202.134 119.719C197.203 110.166 189.192 107.085 186.418 107.701" stroke="#263238" stroke-width="1.23257" stroke-miterlimit="10" stroke-linecap="round" stroke-linejoin="round"/>
<path d="M212.56 195.601C214.194 195.205 215.768 194.675 217.232 193.981" stroke="#263238" stroke-width="1.23257" stroke-miterlimit="10" stroke-linecap="round" stroke-linejoin="round"/>
<path d="M186.727 194.597C186.727 194.597 198.143 197.591 208.724 196.288" stroke="#263238" stroke-width="1.23257" stroke-miterlimit="10" stroke-linecap="round" stroke-linejoin="round"/>
<path d="M199.701 143.489C200.704 143.22 201.721 142.998 202.75 142.83" stroke="#263238" stroke-width="1.23257" stroke-miterlimit="10" stroke-linecap="round" stroke-linejoin="round"/>
<path d="M175.017 159.47C175.017 159.47 184.237 149.126 196.337 144.574" stroke="#263238" stroke-width="1.23257" stroke-miterlimit="10" stroke-linecap="round" stroke-linejoin="round"/>
<path d="M215.331 174.435C216.266 174.438 217.209 174.481 218.157 174.568" stroke="#263238" stroke-width="1.23257" stroke-miterlimit="10" stroke-linecap="round" stroke-linejoin="round"/>
<path d="M185.802 185.353C185.802 185.353 196.316 176.942 209.527 174.885" stroke="#263238" stroke-width="1.23257" stroke-miterlimit="10" stroke-linecap="round" stroke-linejoin="round"/>
</svg>
