<svg width="80" height="59" viewBox="0 0 80 59" fill="none" xmlns="http://www.w3.org/2000/svg">
<path d="M67.9596 1.00195C67.9596 1.00195 70.4692 7.13523 70.4692 14.6626C70.4692 22.1899 67.4025 32.2267 71.5847 35.2934C75.7668 38.36 78.8334 35.5719 78.8334 35.5719C78.8334 35.5719 79.112 43.9362 69.6335 47.8385C60.155 51.7421 52.3479 51.4623 45.3789 47.0016C38.4087 42.5409 38.4087 30.5529 38.4087 20.2375C38.4087 9.92207 38.9658 3.23043 39.2444 2.39475C39.5229 1.55906 66.8454 1.55907 66.8454 1.55907L67.9596 1.00195Z" fill="#263238" stroke="#263238" stroke-width="1.23257" stroke-miterlimit="10" stroke-linecap="round" stroke-linejoin="round"/>
<path d="M63.2192 2.67573C63.2192 2.67573 65.1703 21.9125 65.1703 28.6029C65.1703 35.2933 58.2001 44.7731 50.1157 47.0028C42.0312 49.2325 34.2241 43.6576 28.3694 34.4576C22.5146 25.2577 27.2539 5.18402 27.2539 5.18402C27.2539 5.18402 55.6918 1.00312 63.2192 2.67573Z" fill="white" stroke="#263238" stroke-width="1.23257" stroke-miterlimit="10" stroke-linecap="round" stroke-linejoin="round"/>
<path d="M56.2502 11.8755C56.2502 11.8755 55.1347 14.9421 55.6931 16.8933C56.2502 18.8445 60.9907 20.5171 58.4812 22.748C55.9717 24.9777 51.7908 24.9777 51.7908 24.9777" stroke="#263238" stroke-width="1.23257" stroke-miterlimit="10" stroke-linecap="round" stroke-linejoin="round"/>
<path d="M45.0979 28.0459C45.0979 28.0459 49.5586 32.7852 55.6919 29.9971" stroke="#263238" stroke-width="1.23257" stroke-miterlimit="10" stroke-linecap="round" stroke-linejoin="round"/>
<path d="M47.3289 14.1047C47.3289 15.4901 46.6423 16.6143 45.7955 16.6143C44.9488 16.6143 44.2622 15.4914 44.2622 14.1047C44.2622 12.7193 44.9488 11.5952 45.7955 11.5952C46.6423 11.5964 47.3289 12.7193 47.3289 14.1047Z" fill="#263238"/>
<path d="M61.2676 14.1047C61.2676 15.4901 60.581 16.6143 59.7343 16.6143C58.8875 16.6143 58.2009 15.4914 58.2009 14.1047C58.2009 12.7193 58.8875 11.5952 59.7343 11.5952C60.581 11.5964 61.2676 12.7193 61.2676 14.1047Z" fill="#263238"/>
<path d="M40.0796 8.80855C40.0796 8.80855 41.4736 6.85739 47.0498 7.41451" stroke="#263238" stroke-width="1.23257" stroke-miterlimit="10" stroke-linecap="round" stroke-linejoin="round"/>
<path d="M57.364 7.6935C57.364 7.6935 60.1521 6.02089 62.9402 9.64466" stroke="#263238" stroke-width="1.23257" stroke-miterlimit="10" stroke-linecap="round" stroke-linejoin="round"/>
<path d="M36.455 4.06879C36.455 4.06879 31.9943 19.9604 31.7158 28.6019C31.4372 37.2448 32.8313 43.0995 36.455 42.2626C40.0788 41.4269 41.4728 40.3114 41.4728 40.3114C41.4728 40.3114 43.424 47.0018 37.2907 51.1839C31.1574 55.3661 20.5635 59.8267 9.96949 56.4815C-0.624486 53.1363 0.211195 34.7352 3.55763 28.3234C6.90284 21.9115 8.29688 14.6628 8.85524 12.4318C9.4136 10.2008 26.9765 1.00215 36.455 4.06879Z" fill="#263238" stroke="#263238" stroke-width="1.23257" stroke-miterlimit="10" stroke-linecap="round" stroke-linejoin="round"/>
</svg>
