<svg width="182" height="140" viewBox="0 0 182 140" fill="none" xmlns="http://www.w3.org/2000/svg">
<path d="M38.3705 1.45654C38.3705 1.45654 37.255 7.58982 36.6979 14.8386C36.1408 22.0874 33.9098 22.6445 31.6801 23.76C29.4504 24.8754 8.81957 30.4504 6.58861 31.8456C4.35765 33.2397 2.68506 62.2335 4.35766 71.4347C6.03026 80.6346 6.30882 112.138 6.30882 112.138C6.30882 112.138 1.29102 128.587 1.29102 129.702C1.29102 130.818 22.7575 139.46 47.0133 139.181C71.2692 138.901 79.9107 132.21 80.7477 128.587C81.5833 124.963 84.3714 100.986 84.3714 100.15C84.3714 99.313 91.3207 117.416 95.7653 117.876C100.211 118.335 143.986 105.01 143.986 105.01C143.986 105.01 163.923 107.491 167.59 107.538C171.257 107.585 173.458 102.864 172.45 100.435C171.443 98.0053 155.908 89.4759 150.912 88.9237C145.916 88.3727 135.235 94.7858 135.235 94.7858L108.343 90.9562C108.343 90.9562 93.2916 48.8515 88.8309 39.6515C84.3702 30.4516 84.9273 28.779 76.8429 25.7124C68.7584 22.6457 58.1632 19.5791 58.1632 19.5791L57.6061 9.26366L38.3705 1.45654Z" fill="#840037" stroke="#263238" stroke-width="1.23257" stroke-miterlimit="10" stroke-linecap="round" stroke-linejoin="round"/>
<path d="M171.235 103.478C171.235 103.478 180.326 100.452 180.497 99.1642C180.669 97.8762 181.136 89.4195 180.422 87.8825C179.709 86.3455 179.134 87.7112 177.892 92.1336C176.649 96.5561 174.865 98.1535 170.984 99.7361C167.104 101.319 171.235 103.478 171.235 103.478Z" fill="white" stroke="#263238" stroke-width="1.23257" stroke-miterlimit="10" stroke-linecap="round" stroke-linejoin="round"/>
<path d="M150.912 88.9247C145.916 88.3737 135.235 94.7868 135.235 94.7868L119.045 92.5423C115.52 94.5575 114.251 99.3288 115.229 104.603C116.003 108.779 119.03 110.649 122.169 111.436C133.436 108.222 143.987 105.011 143.987 105.011C143.987 105.011 163.924 107.492 167.591 107.539C171.258 107.586 173.459 102.865 172.451 100.436C171.443 98.0063 155.907 89.4769 150.912 88.9247Z" fill="white" stroke="#263238" stroke-width="1.23257" stroke-miterlimit="10" stroke-linecap="round" stroke-linejoin="round"/>
<path d="M179.006 50.8882H143.672V98.1364H179.006V50.8882Z" fill="#840037" stroke="#263238" stroke-width="1.23257" stroke-miterlimit="10" stroke-linecap="round" stroke-linejoin="round"/>
<path d="M176.668 64.563H148.176V90.4175H176.668V64.563Z" fill="white" stroke="#263238" stroke-width="1.23257" stroke-miterlimit="10" stroke-linecap="round" stroke-linejoin="round"/>
<path d="M154.671 78.2869V82.0208H153.747V73.7231H154.671V77.4571H156.71V73.7231H157.635V82.0208H156.71V78.2869H154.671Z" fill="#263238"/>
<path d="M161.54 77.3975V78.2272H159.513V81.1789H162.002V82.0208H158.588V73.7231H162.002V74.5651H159.513V77.3988L161.54 77.3975Z" fill="#263238"/>
<path d="M162.858 82.0208V73.7231H163.783V81.1802H166.153V82.0222L162.858 82.0208Z" fill="#263238"/>
<path d="M168.67 73.7231C169.974 73.7231 170.532 74.4933 170.532 75.7501V76.7453C170.532 78.0605 169.915 78.7492 168.6 78.7492H167.782V82.0208H166.857V73.7231H168.67ZM168.598 77.9194C169.286 77.9194 169.618 77.5995 169.618 76.805V75.7027C169.618 74.9434 169.345 74.5651 168.67 74.5651H167.781V77.9194H168.598Z" fill="#263238"/>
<path d="M179.006 50.8882H143.672V57.0511H179.006V50.8882Z" fill="white" stroke="#263238" stroke-width="1.23257" stroke-miterlimit="10" stroke-linecap="round" stroke-linejoin="round"/>
<path d="M169.142 105.398C169.142 105.398 178.233 102.372 178.405 101.084C178.576 99.7956 179.043 91.3389 178.329 89.8019C177.616 88.2649 177.041 89.6306 175.799 94.0531C174.557 98.4755 172.772 100.073 168.892 101.656C165.013 103.238 169.142 105.398 169.142 105.398Z" fill="white" stroke="#263238" stroke-width="1.23257" stroke-miterlimit="10" stroke-linecap="round" stroke-linejoin="round"/>
<path d="M141.505 99.4102C141.505 99.4102 147.991 95.4943 152.448 96.2387C156.906 96.9832 166.901 101.984 166.901 101.984C166.901 101.984 174.874 91.6511 175.616 94.6919C176.358 97.7314 171.831 104.89 168.656 106.442C165.481 107.995 152.851 106.303 152.851 106.303" fill="white"/>
<path d="M141.505 99.4102C141.505 99.4102 147.991 95.4943 152.448 96.2387C156.906 96.9832 166.901 101.984 166.901 101.984C166.901 101.984 174.874 91.6511 175.616 94.6919C176.358 97.7314 171.831 104.89 168.656 106.442C165.481 107.995 152.851 106.303 152.851 106.303" stroke="#263238" stroke-width="1.23257" stroke-miterlimit="10" stroke-linecap="round" stroke-linejoin="round"/>
</svg>
