<svg width="90" height="208" viewBox="0 0 90 208" fill="none" xmlns="http://www.w3.org/2000/svg">
<path d="M26.1706 4.31786C26.1706 4.31786 21.9885 83.7745 21.9885 87.6768C21.9885 91.5804 19.2004 94.0887 16.1338 94.3685C13.0671 94.647 3.30883 92.1375 3.30883 92.1375L2.19335 95.2042L9.16356 97.9922L1.35767 197.243C1.35767 197.243 16.4123 206.164 37.0431 206.721C57.674 207.278 82.7655 197.521 85.275 195.569C87.7845 193.618 89.1786 192.224 89.1786 192.224L81.9298 106.355C81.9298 106.355 84.9964 71.5055 80.8143 58.6818C76.6322 45.8568 59.9049 1.24999 59.9049 1.24999L57.9538 0.692871L70.2203 42.2331C70.2203 42.2331 45.4074 47.2509 27.5647 43.9057L28.6801 3.75952L26.1706 4.31786Z" fill="#840037" stroke="#263238" stroke-width="1.23257" stroke-miterlimit="10" stroke-linecap="round" stroke-linejoin="round"/>
<path d="M72.0186 102.406C67.1549 110.514 58.2224 122.855 45.2188 130.886" stroke="#263238" stroke-width="1.23257" stroke-miterlimit="10" stroke-linecap="round" stroke-linejoin="round"/>
<path d="M76.3784 94.2295C76.3784 94.2295 75.7288 95.7185 74.4309 98.1528" stroke="#263238" stroke-width="1.23257" stroke-miterlimit="10" stroke-linecap="round" stroke-linejoin="round"/>
<path d="M61.7156 124.165C61.7156 124.165 47.6642 133.329 43.3872 139.439" stroke="#263238" stroke-width="1.23257" stroke-miterlimit="10" stroke-linecap="round" stroke-linejoin="round"/>
</svg>
