<svg width="70" height="98" viewBox="0 0 70 98" fill="none" xmlns="http://www.w3.org/2000/svg">
<path d="M68.1823 74.5354C65.7172 71.2481 48.8716 54.4038 48.4611 53.1712C48.2048 52.4008 57.7486 27.8504 65.6395 7.25166C54.1938 9.31622 44.6069 4.36747 40.2694 1.5498C38.8249 15.4606 37.2151 33.2417 36.1354 37.5594C34.4924 44.1328 31.6155 65.0865 30.7947 67.5517C29.9725 70.0168 32.8494 72.0715 35.3145 72.482C37.7796 72.8924 54.6252 79.4669 59.1439 79.0553C63.6625 78.6436 70.6474 77.8227 68.1823 74.5354Z" fill="#E6CCD7" stroke="#263238" stroke-width="1.23257" stroke-miterlimit="10" stroke-linecap="round" stroke-linejoin="round"/>
<path d="M29.9729 96.7221C32.438 93.8465 36.1358 93.0244 32.0276 79.8765C27.9194 66.7286 24.6321 59.7448 24.6321 55.6354C24.6321 51.5273 22.9891 13.728 25.0426 5.92208C25.1067 5.6768 25.1708 5.39083 25.2361 5.06543C19.0227 7.11273 7.7767 6.16365 0.669678 5.25031C6.18421 29.5258 13.1285 59.3344 13.1285 59.3344C13.1285 59.3344 11.896 77.4126 14.7716 84.808C17.6471 92.2022 27.5077 99.5977 29.9729 96.7221Z" fill="#E6CCD7" stroke="#263238" stroke-width="1.23257" stroke-miterlimit="10" stroke-linecap="round" stroke-linejoin="round"/>
</svg>
