<svg width="177" height="58" viewBox="0 0 177 58" fill="none" xmlns="http://www.w3.org/2000/svg">
<path d="M170.843 46.8934C163.182 42.7156 159.699 46.1971 156.913 42.7156C154.128 39.2324 164.574 30.1788 143.68 21.1236C143.68 21.1236 142.288 1.62208 113.731 0.925777C85.1759 0.22947 92.8369 20.4289 85.1759 25.303C77.5149 30.1788 75.4259 22.5178 67.7633 27.392C60.1007 32.2677 63.5839 42.0193 57.3155 43.4119C51.0471 44.8045 42.6897 37.1435 35.0271 42.0193C27.3661 46.8934 27.3661 51.0729 23.8829 51.0729C20.4014 51.0729 13.4351 48.2877 9.25724 51.0729C5.07776 53.8598 0.203613 57.3413 0.203613 57.3413H176.415C176.415 57.3413 178.504 51.0729 170.843 46.8934Z" fill="#840037"/>
<g opacity="0.5">
<path d="M170.843 46.8934C163.182 42.7156 159.699 46.1971 156.913 42.7156C154.128 39.2324 164.574 30.1788 143.68 21.1236C143.68 21.1236 142.288 1.62208 113.731 0.925777C85.1759 0.22947 92.8369 20.4289 85.1759 25.303C77.5149 30.1788 75.4259 22.5178 67.7633 27.392C60.1007 32.2677 63.5839 42.0193 57.3155 43.4119C51.0471 44.8045 42.6897 37.1435 35.0271 42.0193C27.3661 46.8934 27.3661 51.0729 23.8829 51.0729C20.4014 51.0729 13.4351 48.2877 9.25724 51.0729C5.07776 53.8598 0.203613 57.3413 0.203613 57.3413H176.415C176.415 57.3413 178.504 51.0729 170.843 46.8934Z" fill="white"/>
</g>
</svg>
