<svg width="20" height="21" viewBox="0 0 20 21" fill="none" xmlns="http://www.w3.org/2000/svg">
<path d="M1.79026 1.93383L10.5303 10.5048L1.85526 19.1548C1.71369 18.9698 1.60355 18.7627 1.52926 18.5418C1.49025 18.2917 1.49025 18.037 1.52926 17.7868V3.06683C1.50326 2.67183 1.59426 2.27683 1.78926 1.93383M14.2953 6.76683L11.4423 9.59283L2.80626 1.09983C3.08626 1.00283 3.38626 0.975835 3.67926 1.02183C4.13926 1.14783 4.57826 1.34183 4.98126 1.59483L12.7973 5.91983C13.3053 6.19283 13.8003 6.47983 14.2953 6.76683ZM11.4433 11.4298L14.2823 14.2178L12.2243 15.3638L5.94526 18.8538C5.42526 19.1408 4.90326 19.4148 4.39526 19.7278C4.17794 19.8633 3.93419 19.9508 3.68033 19.9844C3.42647 20.018 3.16835 19.997 2.92326 19.9228L11.4433 11.4298ZM18.8033 10.5048C18.8111 10.8546 18.723 11.1999 18.5484 11.5031C18.3739 11.8063 18.1197 12.0559 17.8133 12.2248L15.4673 13.5268L12.3803 10.5048L15.4803 7.43083C16.2753 7.87383 17.0573 8.31683 17.8383 8.73383C18.1499 8.90774 18.4059 9.16642 18.5765 9.47987C18.7471 9.79332 18.8264 10.1487 18.8033 10.5048Z" fill="white"/>
</svg>
