<svg width="123" height="394" viewBox="0 0 123 394" fill="none" xmlns="http://www.w3.org/2000/svg">
<path d="M27.8533 83.2627L52.289 317.404" stroke="#263238" stroke-width="2.46515" stroke-miterlimit="10"/>
<path d="M48.3494 272.595L37.2722 260.895" stroke="#263238" stroke-width="2.46515" stroke-miterlimit="10"/>
<path d="M40.6387 264.4C40.6387 264.4 40.9555 259.225 36.2298 255.004C33.3863 252.465 18.4216 246.169 17.0017 251.44C15.4572 257.171 30.7744 268.429 40.6387 264.4Z" fill="#840037" stroke="#263238" stroke-width="1.23257" stroke-miterlimit="10"/>
<path d="M40.6386 264.401L26.3926 255.522" stroke="#263238" stroke-width="0.616287" stroke-miterlimit="10"/>
<path d="M51.1291 299.223L40.052 287.523" stroke="#263238" stroke-width="2.46515" stroke-miterlimit="10"/>
<path d="M43.4168 291.028C43.4168 291.028 43.7336 285.852 39.0079 281.632C36.1643 279.093 21.1997 272.797 19.7797 278.067C18.2353 283.799 33.5525 295.057 43.4168 291.028Z" fill="#840037" stroke="#263238" stroke-width="1.23257" stroke-miterlimit="10"/>
<path d="M43.4165 291.028L29.1704 282.149" stroke="#263238" stroke-width="0.616287" stroke-miterlimit="10"/>
<path d="M41.5693 207.615L30.491 195.916" stroke="#263238" stroke-width="2.46515" stroke-miterlimit="10"/>
<path d="M33.8572 199.421C33.8572 199.421 34.174 194.245 29.4483 190.024C26.6048 187.485 11.6401 181.189 10.2202 186.459C8.67574 192.192 23.9929 203.45 33.8572 199.421Z" fill="#840037" stroke="#263238" stroke-width="1.23257" stroke-miterlimit="10"/>
<path d="M33.8574 199.421L19.6113 190.543" stroke="#263238" stroke-width="0.616287" stroke-miterlimit="10"/>
<path d="M44.3474 234.244L33.2703 222.544" stroke="#263238" stroke-width="2.46515" stroke-miterlimit="10"/>
<path d="M36.6365 226.049C36.6365 226.049 36.9533 220.874 32.2276 216.653C29.384 214.114 14.4194 207.818 12.9995 213.089C11.455 218.821 26.7722 230.078 36.6365 226.049Z" fill="#840037" stroke="#263238" stroke-width="1.23257" stroke-miterlimit="10"/>
<path d="M36.6365 226.049L22.3904 217.171" stroke="#263238" stroke-width="0.616287" stroke-miterlimit="10"/>
<path d="M37.0544 164.359L25.9773 152.66" stroke="#263238" stroke-width="2.46515" stroke-miterlimit="10"/>
<path d="M29.3436 156.165C29.3436 156.165 29.6603 150.99 24.9347 146.769C22.0911 144.23 7.12642 137.934 5.70649 143.205C4.16208 148.936 19.478 160.195 29.3436 156.165Z" fill="#840037" stroke="#263238" stroke-width="1.23257" stroke-miterlimit="10"/>
<path d="M29.3435 156.166L15.0962 147.288" stroke="#263238" stroke-width="0.616287" stroke-miterlimit="10"/>
<path d="M32.521 120.915L21.4426 109.214" stroke="#263238" stroke-width="2.46515" stroke-miterlimit="10"/>
<path d="M24.8091 112.719C24.8091 112.719 25.1259 107.544 20.4002 103.324C17.5567 100.784 2.59199 94.4885 1.17206 99.759C-0.372353 105.492 14.9448 116.749 24.8091 112.719Z" fill="#840037" stroke="#263238" stroke-width="1.23257" stroke-miterlimit="10"/>
<path d="M24.8091 112.72L10.563 103.843" stroke="#263238" stroke-width="0.616287" stroke-miterlimit="10"/>
<path d="M46.4888 256.839L54.9122 243.103" stroke="#263238" stroke-width="2.46515" stroke-miterlimit="10"/>
<path d="M52.3421 247.229C52.3421 247.229 50.9641 242.231 54.7161 237.125C56.9741 234.053 70.3155 224.804 72.793 229.666C75.4886 234.956 62.8264 249.135 52.3421 247.229Z" fill="#840037" stroke="#263238" stroke-width="1.23257" stroke-miterlimit="10"/>
<path d="M52.3418 247.228L65.1705 234.967" stroke="#263238" stroke-width="0.616287" stroke-miterlimit="10"/>
<path d="M39.1755 186.765L47.5977 173.03" stroke="#263238" stroke-width="2.46515" stroke-miterlimit="10"/>
<path d="M45.0291 177.154C45.0291 177.154 43.6511 172.156 47.403 167.05C49.6611 163.978 63.0025 154.729 65.4812 159.592C68.1756 164.883 55.5134 179.061 45.0291 177.154Z" fill="#840037" stroke="#263238" stroke-width="1.23257" stroke-miterlimit="10"/>
<path d="M45.0291 177.154L57.8577 164.894" stroke="#263238" stroke-width="0.616287" stroke-miterlimit="10"/>
<path d="M35.9609 155.969L44.3843 142.235" stroke="#263238" stroke-width="2.46515" stroke-miterlimit="10"/>
<path d="M41.8156 146.361C41.8156 146.361 40.4364 141.362 44.1896 136.256C46.4476 133.185 59.789 123.935 62.2677 128.799C64.9609 134.088 52.2987 148.266 41.8156 146.361Z" fill="#840037" stroke="#263238" stroke-width="1.23257" stroke-miterlimit="10"/>
<path d="M41.8154 146.36L54.6428 134.099" stroke="#263238" stroke-width="0.616287" stroke-miterlimit="10"/>
<path d="M31.2502 110.827L39.6737 97.0908" stroke="#263238" stroke-width="2.46515" stroke-miterlimit="10"/>
<path d="M37.1036 101.216C37.1036 101.216 35.7256 96.2183 39.4775 91.1117C41.7356 88.0402 55.077 78.7909 57.5557 83.6547C60.2501 88.9436 47.5879 103.122 37.1036 101.216Z" fill="#840037" stroke="#263238" stroke-width="1.23257" stroke-miterlimit="10"/>
<path d="M37.1038 101.216L49.9324 88.9546" stroke="#263238" stroke-width="0.616287" stroke-miterlimit="10"/>
<path d="M27.6474 81.9621C27.6474 81.9621 26.2682 76.964 30.0214 71.8575C32.2794 68.7859 45.6208 59.5367 48.0995 64.3992C50.7939 69.6906 38.1317 83.8677 27.6474 81.9621Z" fill="#840037" stroke="#263238" stroke-width="1.23257" stroke-miterlimit="10"/>
<path d="M27.6475 81.9625L40.4761 69.7021" stroke="#263238" stroke-width="0.616287" stroke-miterlimit="10"/>
<path d="M28.3906 82.4909C28.3906 82.4909 23.2754 83.3377 18.5904 79.0705C15.7728 76.503 7.97303 62.2643 13.0697 60.3107C18.6138 58.1858 31.3858 72.2654 28.3906 82.4909Z" fill="#840037" stroke="#263238" stroke-width="1.23257" stroke-miterlimit="10"/>
<path d="M28.3906 82.491L17.5427 68.4482" stroke="#263238" stroke-width="0.616287" stroke-miterlimit="10"/>
<path d="M92.3026 115.507L68.0049 349.661" stroke="#263238" stroke-width="2.46515" stroke-miterlimit="10"/>
<path d="M73.3774 305.002L64.9453 291.271" stroke="#263238" stroke-width="2.46515" stroke-miterlimit="10"/>
<path d="M67.5177 295.396C67.5177 295.396 68.8933 290.396 65.1376 285.292C62.8783 282.222 49.5308 272.98 47.0558 277.845C44.3638 283.136 57.0347 297.307 67.5177 295.396Z" fill="#840037" stroke="#263238" stroke-width="1.23257" stroke-miterlimit="10"/>
<path d="M67.5173 295.396L55.4036 283.775" stroke="#263238" stroke-width="0.616287" stroke-miterlimit="10"/>
<path d="M80.1193 240.021L71.6885 226.29" stroke="#263238" stroke-width="2.46515" stroke-miterlimit="10"/>
<path d="M74.2609 230.413C74.2609 230.413 75.6365 225.413 71.8808 220.309C69.6215 217.239 56.2739 207.997 53.7989 212.862C51.107 218.155 63.7779 232.326 74.2609 230.413Z" fill="#840037" stroke="#263238" stroke-width="1.23257" stroke-miterlimit="10"/>
<path d="M74.261 230.413L62.1472 218.792" stroke="#263238" stroke-width="0.616287" stroke-miterlimit="10"/>
<path d="M77.3561 266.649L68.9253 252.918" stroke="#263238" stroke-width="2.46515" stroke-miterlimit="10"/>
<path d="M71.4975 257.043C71.4975 257.043 72.873 252.044 69.1174 246.94C66.8581 243.869 53.5105 234.628 51.0355 239.492C48.3436 244.784 61.0144 258.955 71.4975 257.043Z" fill="#840037" stroke="#263238" stroke-width="1.23257" stroke-miterlimit="10"/>
<path d="M71.4975 257.044L59.3838 245.423" stroke="#263238" stroke-width="0.616287" stroke-miterlimit="10"/>
<path d="M84.6088 196.761L76.178 183.031" stroke="#263238" stroke-width="2.46515" stroke-miterlimit="10"/>
<path d="M78.7491 187.154C78.7491 187.154 80.1246 182.155 76.369 177.051C74.1097 173.981 60.7622 164.739 58.2871 169.604C55.5964 174.896 68.2673 189.066 78.7491 187.154Z" fill="#840037" stroke="#263238" stroke-width="1.23257" stroke-miterlimit="10"/>
<path d="M78.749 187.154L66.6365 175.534" stroke="#263238" stroke-width="0.616287" stroke-miterlimit="10"/>
<path d="M89.1169 153.312L80.686 139.581" stroke="#263238" stroke-width="2.46515" stroke-miterlimit="10"/>
<path d="M83.2577 143.706C83.2577 143.706 84.6332 138.707 80.8776 133.604C78.6183 130.534 65.2707 121.292 62.7957 126.157C60.105 131.447 72.7746 145.618 83.2577 143.706Z" fill="#840037" stroke="#263238" stroke-width="1.23257" stroke-miterlimit="10"/>
<path d="M83.2573 143.706L71.1448 132.085" stroke="#263238" stroke-width="0.616287" stroke-miterlimit="10"/>
<path d="M74.7981 289.201L85.8691 277.494" stroke="#263238" stroke-width="2.46515" stroke-miterlimit="10"/>
<path d="M82.5055 281.001C82.5055 281.001 82.1851 275.826 86.9095 271.603C89.7518 269.061 104.712 262.758 106.135 268.027C107.683 273.757 92.3723 285.024 82.5055 281.001Z" fill="#840037" stroke="#263238" stroke-width="1.23257" stroke-miterlimit="10"/>
<path d="M82.5056 281.001L97.5837 271.644" stroke="#263238" stroke-width="0.616287" stroke-miterlimit="10"/>
<path d="M82.0706 219.122L93.1415 207.416" stroke="#263238" stroke-width="2.46515" stroke-miterlimit="10"/>
<path d="M89.7778 210.924C89.7778 210.924 89.4573 205.748 94.1805 201.525C97.0228 198.984 111.983 192.68 113.406 197.95C114.954 203.68 99.6445 214.947 89.7778 210.924Z" fill="#840037" stroke="#263238" stroke-width="1.23257" stroke-miterlimit="10"/>
<path d="M89.7778 210.924L104.856 201.567" stroke="#263238" stroke-width="0.616287" stroke-miterlimit="10"/>
<path d="M85.2668 188.327L96.3366 176.62" stroke="#263238" stroke-width="2.46515" stroke-miterlimit="10"/>
<path d="M92.9726 180.128C92.9726 180.128 92.6521 174.953 97.3766 170.73C100.219 168.188 115.179 161.885 116.602 167.154C118.15 172.884 102.841 184.151 92.9726 180.128Z" fill="#840037" stroke="#263238" stroke-width="1.23257" stroke-miterlimit="10"/>
<path d="M92.9729 180.127L108.051 170.77" stroke="#263238" stroke-width="0.616287" stroke-miterlimit="10"/>
<path d="M89.9519 143.18L101.022 131.473" stroke="#263238" stroke-width="2.46515" stroke-miterlimit="10"/>
<path d="M97.6579 134.979C97.6579 134.979 97.3374 129.804 102.062 125.581C104.904 123.039 119.864 116.736 121.288 122.005C122.836 127.736 107.525 139.002 97.6579 134.979Z" fill="#840037" stroke="#263238" stroke-width="1.23257" stroke-miterlimit="10"/>
<path d="M97.6577 134.98L112.736 125.623" stroke="#263238" stroke-width="0.616287" stroke-miterlimit="10"/>
<path d="M92.369 114.191C92.369 114.191 92.0498 109.015 96.773 104.791C99.6153 102.25 114.575 95.9465 115.999 101.216C117.546 106.948 102.236 118.214 92.369 114.191Z" fill="#840037" stroke="#263238" stroke-width="1.23257" stroke-miterlimit="10"/>
<path d="M92.3691 114.191L107.447 104.834" stroke="#263238" stroke-width="0.616287" stroke-miterlimit="10"/>
<path d="M92.9878 114.862C92.9878 114.862 87.8073 114.637 84.1022 109.496C81.8725 106.404 77.1726 90.8647 82.5627 90.0019C88.4248 89.0639 98.0241 105.472 92.9878 114.862Z" fill="#840037" stroke="#263238" stroke-width="1.23257" stroke-miterlimit="10"/>
<path d="M92.9875 114.861L85.2629 98.8857" stroke="#263238" stroke-width="0.616287" stroke-miterlimit="10"/>
<path d="M64.4585 20.1587V316.262" stroke="#263238" stroke-width="2.46515" stroke-miterlimit="10"/>
<path d="M64.6938 271.741L54.8911 258.954" stroke="#263238" stroke-width="2.46515" stroke-miterlimit="10"/>
<path d="M57.8739 262.79C57.8739 262.79 58.7257 257.675 54.4634 252.986C51.8997 250.165 37.6684 242.35 35.7098 247.446C33.5799 252.987 47.6448 265.774 57.8739 262.79Z" fill="#840037" stroke="#263238" stroke-width="1.23257" stroke-miterlimit="10"/>
<path d="M57.8739 262.79L44.6262 252.482" stroke="#263238" stroke-width="0.616287" stroke-miterlimit="10"/>
<path d="M64.6938 216.095L54.8911 203.308" stroke="#263238" stroke-width="2.46515" stroke-miterlimit="10"/>
<path d="M57.8739 207.144C57.8739 207.144 58.7257 202.029 54.4634 197.341C51.8997 194.52 37.6684 186.706 35.7098 191.801C33.5799 197.341 47.6448 210.128 57.8739 207.144Z" fill="#840037" stroke="#263238" stroke-width="1.23257" stroke-miterlimit="10"/>
<path d="M57.8737 207.144L44.626 196.836" stroke="#263238" stroke-width="0.616287" stroke-miterlimit="10"/>
<path d="M64.6938 150.764L54.8911 137.977" stroke="#263238" stroke-width="2.46515" stroke-miterlimit="10"/>
<path d="M57.8739 141.813C57.8739 141.813 58.7257 136.697 54.4634 132.01C51.8997 129.189 37.6684 121.374 35.7098 126.469C33.5799 132.01 47.6448 144.795 57.8739 141.813Z" fill="#840037" stroke="#263238" stroke-width="1.23257" stroke-miterlimit="10"/>
<path d="M57.8739 141.812L44.6262 131.504" stroke="#263238" stroke-width="0.616287" stroke-miterlimit="10"/>
<path d="M64.6938 107.273L54.8911 94.4863" stroke="#263238" stroke-width="2.46515" stroke-miterlimit="10"/>
<path d="M57.8742 98.3216C57.8742 98.3216 58.7259 93.2064 54.4637 88.5177C51.8999 85.6964 37.6686 77.8819 35.7101 82.9773C33.5802 88.519 47.6451 101.306 57.8742 98.3216Z" fill="#840037" stroke="#263238" stroke-width="1.23257" stroke-miterlimit="10"/>
<path d="M57.8739 98.3222L44.6262 88.0142" stroke="#263238" stroke-width="0.616287" stroke-miterlimit="10"/>
<path d="M64.6943 63.5909L54.8916 50.8042" stroke="#263238" stroke-width="2.46515" stroke-miterlimit="10"/>
<path d="M57.8742 54.6398C57.8742 54.6398 58.7259 49.5246 54.4637 44.8359C51.8999 42.0158 37.6686 34.2001 35.7101 39.2955C33.5802 44.8372 47.6451 57.6239 57.8742 54.6398Z" fill="#840037" stroke="#263238" stroke-width="1.23257" stroke-miterlimit="10"/>
<path d="M57.8742 54.64L44.6265 44.332" stroke="#263238" stroke-width="0.616287" stroke-miterlimit="10"/>
<path d="M64.4785 288.733L74.2812 275.946" stroke="#263238" stroke-width="2.46515" stroke-miterlimit="10"/>
<path d="M71.2967 279.782C71.2967 279.782 70.4438 274.667 74.706 269.98C77.271 267.158 91.5011 259.344 93.4596 264.439C95.592 269.98 81.5271 282.766 71.2967 279.782Z" fill="#840037" stroke="#263238" stroke-width="1.23257" stroke-miterlimit="10"/>
<path d="M71.2969 279.782L85.3285 268.918" stroke="#263238" stroke-width="0.616287" stroke-miterlimit="10"/>
<path d="M64.4785 200.232L74.2812 187.445" stroke="#263238" stroke-width="2.46515" stroke-miterlimit="10"/>
<path d="M71.2972 191.281C71.2972 191.281 70.4443 186.166 74.7065 181.479C77.2715 178.658 91.5016 170.843 93.4601 175.938C95.5925 181.477 81.5276 194.264 71.2972 191.281Z" fill="#840037" stroke="#263238" stroke-width="1.23257" stroke-miterlimit="10"/>
<path d="M71.2974 191.281L85.329 180.417" stroke="#263238" stroke-width="0.616287" stroke-miterlimit="10"/>
<path d="M64.4788 156.55L74.2814 143.764" stroke="#263238" stroke-width="2.46515" stroke-miterlimit="10"/>
<path d="M71.297 147.599C71.297 147.599 70.444 142.484 74.7063 137.797C77.2713 134.975 91.5013 127.161 93.4599 132.256C95.5922 137.797 81.5273 150.583 71.297 147.599Z" fill="#840037" stroke="#263238" stroke-width="1.23257" stroke-miterlimit="10"/>
<path d="M71.2974 147.6L85.329 136.736" stroke="#263238" stroke-width="0.616287" stroke-miterlimit="10"/>
<path d="M64.4788 98.815L74.2814 86.0283" stroke="#263238" stroke-width="2.46515" stroke-miterlimit="10"/>
<path d="M71.297 89.8639C71.297 89.8639 70.444 84.7487 74.7063 80.0613C77.2713 77.2399 91.5013 69.4254 93.4599 74.5196C95.5922 80.0612 81.5273 92.848 71.297 89.8639Z" fill="#840037" stroke="#263238" stroke-width="1.23257" stroke-miterlimit="10"/>
<path d="M71.2974 89.8627L85.329 79" stroke="#263238" stroke-width="0.616287" stroke-miterlimit="10"/>
<path d="M64.4788 53.4244L74.2814 40.6377" stroke="#263238" stroke-width="2.46515" stroke-miterlimit="10"/>
<path d="M71.2972 44.4737C71.2972 44.4737 70.4443 39.3585 74.7065 34.671C77.2715 31.8497 91.5016 24.0352 93.4601 29.1306C95.5925 34.6711 81.5276 47.4578 71.2972 44.4737Z" fill="#840037" stroke="#263238" stroke-width="1.23257" stroke-miterlimit="10"/>
<path d="M71.2976 44.4735L85.3292 33.6108" stroke="#263238" stroke-width="0.616287" stroke-miterlimit="10"/>
<path d="M63.8907 24.3428C63.8907 24.3428 63.0378 19.2277 67.3 14.5402C69.865 11.7188 84.0951 3.90431 86.0536 8.99977C88.186 14.539 74.1211 27.3257 63.8907 24.3428Z" fill="#840037" stroke="#263238" stroke-width="1.23257" stroke-miterlimit="10"/>
<path d="M63.8909 24.3429L77.9225 13.479" stroke="#263238" stroke-width="0.616287" stroke-miterlimit="10"/>
<path d="M64.5762 24.946C64.5762 24.946 59.4006 25.2579 55.1839 20.5273C52.6473 17.6813 46.3686 2.71041 51.6403 1.29542C57.3742 -0.242834 68.6153 15.0867 64.5762 24.946Z" fill="#840037" stroke="#263238" stroke-width="1.23257" stroke-miterlimit="10"/>
<path d="M64.576 24.9464L55.2441 9.85352" stroke="#263238" stroke-width="0.616287" stroke-miterlimit="10"/>
<path d="M76.6398 393.059H45.2807L41.3611 313.863H80.5594L76.6398 393.059Z" fill="#A03D66" stroke="#840037" stroke-width="1.23257" stroke-miterlimit="10"/>
</svg>
