<svg width="41" height="41" viewBox="0 0 41 41" fill="none" xmlns="http://www.w3.org/2000/svg">
<path d="M20.495 0.0126953C19.105 0.0126953 17.745 0.152694 16.43 0.417694C16.58 1.20269 16.685 2.15269 16.615 3.15269C16.38 6.67269 15.49 7.9677 15.49 7.9677L10.44 9.3877C10.44 9.3877 11.16 8.07269 10.565 6.03769C10.15 4.60769 9.265 3.9027 8.855 3.6427C3.505 7.3377 0 13.5077 0 20.5027C0 31.8177 9.17 40.9877 20.485 40.9877C31.8 40.9877 40.97 31.8177 40.97 20.5027C40.97 9.1877 31.8 0.0177002 20.485 0.0177002M33 20.3477H25.05C24.88 19.6527 24.635 18.9827 24.355 18.3527H32.565C32.76 19.0027 32.905 19.6677 33 20.3477ZM30.4 14.2277C31.365 15.4577 32.01 16.6727 32.435 17.9327H24.155C23.11 15.7927 21.715 14.2327 21.715 14.2327C21.715 14.2327 30.385 14.2077 30.4 14.2327M28.91 36.4327L28.675 38.3477C28.675 38.3477 26.345 38.5977 26.465 36.6877H14.85C14.505 38.5977 12.235 38.3477 12.235 38.3477L12.47 36.4327L12.515 36.0627H28.955L28.91 36.4327ZM32.06 27.1077C31.57 28.3227 30.49 29.9927 29.05 31.3427C27.85 32.4677 26.365 33.3977 24.83 33.9427C22.065 34.9427 19.39 34.9477 16.625 34.1277C15.63 33.8327 13.75 33.0777 11.97 31.4527C10.69 30.2877 9.76499 29.0827 9.00999 27.4877C7.59999 24.5027 7.45 21.1327 8.365 18.2877C9.015 16.2577 10.09 14.5577 11.19 13.4177C12.5 12.0627 21.085 3.5027 21.085 3.5027L26.24 9.4077C26.24 9.4077 18.495 17.2027 17.04 18.6377C15.875 19.7827 15.185 21.7227 15.935 23.7827C17.16 26.8927 20.76 27.7027 23.175 26.0577C24.645 25.0577 25.395 23.4077 25.275 21.7177C25.255 21.4027 25.205 21.0877 25.145 20.7727H33.05C33.25 22.7177 32.985 25.0327 32.06 27.1077Z" fill="white"/>
</svg>
