<svg width="97" height="285" viewBox="0 0 97 285" fill="none" xmlns="http://www.w3.org/2000/svg">
<path d="M11.2909 10.7021C11.2909 10.7021 0.832527 27.3468 1.24297 41.7272C1.65342 56.1077 11.514 127.185 11.514 127.185C11.514 127.185 6.17327 151.837 8.22674 162.93C10.2802 174.023 27.1258 246.334 27.1258 246.334C27.1258 246.334 25.8932 264.413 28.7688 271.808C31.6444 279.204 41.505 286.599 43.9701 283.723C46.4353 280.848 50.133 280.026 46.0248 266.878C41.9167 253.73 38.6294 246.746 38.6294 242.637C38.6294 238.529 36.9864 200.729 39.0398 192.923C41.0946 185.117 43.148 134.992 43.148 127.187C43.148 119.381 43.148 99.2478 43.148 99.2478L46.8457 56.5181L65.3343 152.659C65.3343 152.659 57.9389 164.574 56.2959 172.38C54.6529 180.186 51.776 217.985 50.133 224.559C48.49 231.132 45.6132 252.086 44.7923 254.551C43.9701 257.016 46.847 259.071 49.3121 259.481C51.7773 259.892 68.6228 266.466 73.1415 266.054C77.6613 265.644 84.6451 264.822 82.1799 261.535C79.7148 258.247 62.8692 241.403 62.4588 240.17C62.0483 238.938 86.6998 176.899 89.5754 167.449C92.451 157.998 94.0952 151.836 95.3278 146.084C96.5604 140.332 96.5604 70.4869 93.2731 41.726C89.9858 12.9663 90.7451 9.5854 90.7451 9.5854L17.2652 0.640625L11.2909 10.7021Z" fill="#263238" stroke="#263238" stroke-width="1.23257" stroke-miterlimit="10" stroke-linecap="round" stroke-linejoin="round"/>
</svg>
