<svg width="559" height="462" viewBox="0 0 559 462" fill="none" xmlns="http://www.w3.org/2000/svg">
<path opacity="0.2" d="M521.1 168.929H459.046V194.046H521.1V168.929Z" fill="black"/>
<path opacity="0.2" d="M557.453 268.539H495.399V293.656H557.453V268.539Z" fill="black"/>
<path opacity="0.2" d="M451.452 168.929H389.398V194.046H451.452V168.929Z" fill="black"/>
<path opacity="0.2" d="M451.452 236.72H389.398V261.837H451.452V236.72Z" fill="black"/>
<path opacity="0.2" d="M165.009 237.953H102.955V263.07H165.009V237.953Z" fill="black"/>
<path opacity="0.1" d="M558.036 203.648H495.982V228.766H558.036V203.648Z" fill="black"/>
<path opacity="0.1" d="M524.174 236.492H462.12V261.61H524.174V236.492Z" fill="black"/>
<path opacity="0.2" d="M379.451 168.929H317.397V194.046H379.451V168.929Z" fill="black"/>
<path opacity="0.1" d="M345.469 203.648H283.415V228.766H345.469V203.648Z" fill="black"/>
<path opacity="0.1" d="M416.387 203.648H354.333V228.766H416.387V203.648Z" fill="black"/>
<path opacity="0.2" d="M237.801 168.929H175.747V194.046H237.801V168.929Z" fill="black"/>
<path opacity="0.1" d="M203.819 203.648H141.765V228.766H203.819V203.648Z" fill="black"/>
<path opacity="0.1" d="M274.738 203.648H212.684V228.766H274.738V203.648Z" fill="black"/>
<path opacity="0.2" d="M96.1526 168.929H34.0986V194.046H96.1526V168.929Z" fill="black"/>
<path opacity="0.2" d="M92.7729 261.144H30.719V286.261H92.7729V261.144Z" fill="black"/>
<path opacity="0.1" d="M62.1706 203.648H0.116699V228.766H62.1706V203.648Z" fill="black"/>
<path opacity="0.1" d="M133.089 203.648H71.0349V228.766H133.089V203.648Z" fill="black"/>
<path opacity="0.2" d="M521.099 27.1821H459.045V52.2995H521.099V27.1821Z" fill="black"/>
<path opacity="0.2" d="M557.453 126.792H495.399V151.91H557.453V126.792Z" fill="black"/>
<path opacity="0.2" d="M451.452 27.1821H389.398V52.2995H451.452V27.1821Z" fill="black"/>
<path opacity="0.2" d="M451.452 94.9736H389.398V120.091H451.452V94.9736Z" fill="black"/>
<path opacity="0.2" d="M165.009 96.2061H102.955V121.323H165.009V96.2061Z" fill="black"/>
<path opacity="0.1" d="M487.117 61.9028H425.063V87.0202H487.117V61.9028Z" fill="black"/>
<path opacity="0.1" d="M558.036 61.9028H495.982V87.0202H558.036V61.9028Z" fill="black"/>
<path opacity="0.1" d="M524.173 94.7456H462.119V119.863H524.173V94.7456Z" fill="black"/>
<path opacity="0.2" d="M379.451 27.1826H317.397V52.3H379.451V27.1826Z" fill="black"/>
<path opacity="0.1" d="M345.469 61.9028H283.416V87.0202H345.469V61.9028Z" fill="black"/>
<path opacity="0.1" d="M416.388 61.9028H354.334V87.0202H416.388V61.9028Z" fill="black"/>
<path opacity="0.2" d="M272.313 0.065918H210.259V25.1833H272.313V0.065918Z" fill="black"/>
<path opacity="0.1" d="M203.819 61.9028H141.765V87.0202H203.819V61.9028Z" fill="black"/>
<path opacity="0.2" d="M237.801 97.0024H175.747V122.12H237.801V97.0024Z" fill="black"/>
<path opacity="0.1" d="M274.737 131.722H212.683V156.84H274.737V131.722Z" fill="black"/>
<path opacity="0.2" d="M92.7727 119.397H30.7188V144.515H92.7727V119.397Z" fill="black"/>
<path opacity="0.2" d="M451.452 297.117H389.398V322.234H451.452V297.117Z" fill="black"/>
<path opacity="0.2" d="M451.452 364.908H389.398V390.025H451.452V364.908Z" fill="black"/>
<path opacity="0.2" d="M165.009 366.14H102.955V391.258H165.009V366.14Z" fill="black"/>
<path opacity="0.1" d="M558.036 331.837H495.982V356.954H558.036V331.837Z" fill="black"/>
<path opacity="0.1" d="M524.174 364.68H462.12V389.798H524.174V364.68Z" fill="black"/>
<path opacity="0.2" d="M379.452 297.117H317.398V322.234H379.452V297.117Z" fill="black"/>
<path opacity="0.1" d="M345.469 331.837H283.415V356.954H345.469V331.837Z" fill="black"/>
<path opacity="0.1" d="M416.388 331.837H354.334V356.954H416.388V331.837Z" fill="black"/>
<path opacity="0.1" d="M386.806 403.326H324.752V428.443H386.806V403.326Z" fill="black"/>
<path opacity="0.1" d="M475.552 436.605H413.498V461.723H475.552V436.605Z" fill="black"/>
<path opacity="0.1" d="M241.362 436.605H179.308V461.722H241.362V436.605Z" fill="black"/>
<path opacity="0.1" d="M64.4235 436.605H2.36963V461.722H64.4235V436.605Z" fill="black"/>
<path opacity="0.1" d="M290.003 246.789H227.949V271.906H290.003V246.789Z" fill="black"/>
<path opacity="0.1" d="M360.922 246.789H298.868V271.906H360.922V246.789Z" fill="black"/>
<path opacity="0.2" d="M237.801 297.117H175.747V322.234H237.801V297.117Z" fill="black"/>
<path opacity="0.1" d="M203.819 331.837H141.765V356.954H203.819V331.837Z" fill="black"/>
<path opacity="0.1" d="M306.123 368.814H244.069V393.931H306.123V368.814Z" fill="black"/>
<path opacity="0.1" d="M274.738 331.837H212.684V356.954H274.738V331.837Z" fill="black"/>
<path opacity="0.2" d="M96.1526 297.117H34.0986V322.234H96.1526V297.117Z" fill="black"/>
<path opacity="0.2" d="M92.7729 389.332H30.719V414.449H92.7729V389.332Z" fill="black"/>
<path opacity="0.1" d="M62.1706 331.837H0.116699V356.954H62.1706V331.837Z" fill="black"/>
<path opacity="0.1" d="M133.089 331.837H71.0354V356.954H133.089V331.837Z" fill="black"/>
</svg>
